<?xml version="1.0" standalone="no"?>
<!DOCTYPE svg PUBLIC "-//W3C//DTD SVG 20010904//EN"
 "http://www.w3.org/TR/2001/REC-SVG-20010904/DTD/svg10.dtd">
<svg version="1.0" xmlns="http://www.w3.org/2000/svg"
 width="1865.000000pt" height="1865.000000pt" viewBox="0 0 1865.000000 1865.000000"
 preserveAspectRatio="xMidYMid meet">
<metadata>
Created by potrace 1.11, written by Peter Selinger 2001-2013
</metadata>
<g transform="translate(0.000000,1865.000000) scale(0.100000,-0.100000)"
fill="#000000" stroke="none">
<path d="M8998 15762 c-32 -4 -68 -45 -68 -78 0 -12 11 -35 24 -51 l24 -27
173 -1 174 -1 0 -6157 c0 -4098 3 -6157 10 -6158 5 0 2066 -1 4580 -2 l4570
-2 0 -171 c1 -183 4 -196 53 -215 35 -13 89 13 99 48 4 15 7 336 6 712 l-1
683 -23 24 c-12 13 -28 24 -36 24 -7 0 -14 6 -14 13 -1 6 -2 441 -3 964 -1
774 1 953 12 953 7 0 24 11 37 25 l25 24 0 1071 0 1071 -23 23 c-13 13 -30 25
-37 28 -21 7 -22 1928 -2 1928 7 0 24 12 37 26 l25 27 0 1064 c0 708 -3 1071
-10 1083 -6 11 -23 26 -38 34 l-27 14 0 957 0 957 26 13 c14 8 30 24 36 37 6
15 10 203 10 541 l0 517 -46 1 c-25 0 -261 1 -523 1 -426 0 -480 -1 -503 -16
-13 -9 -27 -26 -30 -39 l-6 -22 -746 0 -746 0 0 -4492 c0 -3288 -3 -4488 -11
-4480 -9 10 -524 706 -991 1341 -436 592 -790 1072 -795 1076 -3 3 -21 28 -40
56 -19 28 -47 66 -62 85 -15 19 -98 131 -185 249 -86 118 -161 220 -165 225
-10 12 -286 386 -348 471 -25 34 -130 177 -235 319 -104 141 -218 294 -252
341 -34 47 -71 97 -82 112 -12 15 -112 151 -224 302 -111 151 -218 296 -237
322 -19 26 -57 78 -85 115 -27 37 -54 72 -58 78 -4 5 -44 60 -88 120 -44 61
-140 190 -212 288 -73 99 -181 245 -240 325 -59 81 -130 176 -156 212 -27 36
-90 121 -140 190 -51 69 -97 132 -104 140 -7 8 -55 74 -107 145 -52 72 -100
137 -107 145 -7 8 -79 106 -160 216 -81 111 -229 311 -328 445 -98 134 -224
305 -279 379 -105 143 -176 238 -189 255 -47 59 -677 921 -677 927 0 10 -21 9
494 12 l408 2 24 27 c30 35 30 68 1 103 l-23 26 -680 2 c-373 0 -691 0 -706
-2z"/>
<path d="M3919 15756 c-2 -2 -42 -6 -89 -10 -47 -4 -96 -8 -110 -10 -14 -3
-50 -7 -80 -11 -30 -4 -64 -9 -75 -10 -11 -2 -38 -7 -60 -10 -215 -30 -614
-140 -827 -229 -39 -17 -57 -40 -60 -79 -2 -20 -19 -31 -113 -73 -174 -77
-405 -206 -590 -329 -238 -159 -393 -285 -606 -493 -105 -102 -107 -103 -140
-94 -49 13 -69 0 -146 -92 -37 -44 -70 -83 -73 -86 -3 -3 -42 -54 -88 -115
-45 -60 -85 -114 -90 -120 -15 -19 -138 -210 -174 -270 -158 -264 -316 -615
-399 -884 -17 -53 -33 -105 -37 -116 -12 -32 -3 -63 26 -87 l27 -22 -32 -146
c-18 -80 -35 -161 -37 -180 -3 -19 -10 -65 -15 -102 -6 -36 -13 -90 -17 -120
-3 -29 -8 -64 -10 -78 -8 -46 -18 -304 -17 -445 1 -192 10 -325 34 -510 6 -44
13 -93 15 -108 2 -23 -4 -35 -28 -55 -29 -25 -30 -28 -25 -86 8 -80 85 -382
137 -537 67 -198 115 -311 221 -527 70 -141 98 -206 91 -215 -27 -34 -161
-314 -226 -474 -69 -169 -170 -488 -189 -603 -3 -14 -10 -43 -15 -65 -6 -22
-14 -60 -17 -85 -4 -24 -9 -48 -11 -51 -2 -4 8 -21 22 -38 19 -24 34 -31 60
-31 47 0 68 25 83 101 62 309 189 683 334 978 58 118 62 123 76 103 9 -11 54
-74 100 -141 46 -67 96 -135 112 -152 26 -28 33 -31 72 -25 38 5 44 3 62 -23
70 -99 268 -310 435 -463 228 -207 502 -404 771 -552 81 -46 86 -50 86 -82 0
-57 17 -69 229 -162 257 -113 623 -226 864 -267 19 -3 42 -8 50 -10 8 -3 31
-7 50 -9 19 -3 49 -7 65 -10 62 -11 203 -27 285 -32 47 -3 99 -7 115 -9 17 -2
48 -4 70 -4 l40 -1 -1400 -1400 -1400 -1401 66 -62 c178 -168 352 -310 524
-425 55 -37 102 -69 105 -72 7 -7 25 -18 175 -104 130 -74 332 -174 463 -228
29 -12 32 -17 32 -54 0 -62 8 -67 268 -155 137 -47 414 -121 497 -133 22 -3
51 -8 65 -11 63 -13 77 -16 115 -20 22 -3 51 -7 65 -10 14 -2 57 -7 95 -11 39
-3 81 -8 95 -11 52 -8 619 -11 705 -2 112 10 191 19 230 25 32 5 64 9 135 19
163 23 498 111 685 180 55 20 109 39 120 42 38 9 68 39 74 77 6 35 10 39 82
70 450 196 907 511 1256 866 63 64 65 65 112 62 55 -4 61 0 151 108 30 36 57
67 60 70 16 15 166 218 221 300 53 77 143 224 212 345 103 183 284 604 323
755 2 8 12 44 22 80 21 71 17 98 -18 123 l-21 15 20 86 c24 98 26 109 47 231
22 127 22 127 29 191 4 33 9 67 11 77 18 102 25 568 11 767 -7 100 -10 131
-22 210 -2 19 -8 58 -11 85 -3 28 -8 53 -11 57 -2 4 10 20 27 35 36 33 40 76
14 165 -3 10 -8 30 -10 45 -3 16 -20 87 -39 158 -73 279 -172 542 -309 815
l-83 166 79 154 c120 239 211 467 281 710 65 222 104 411 94 451 -3 13 -19 31
-34 40 -50 29 -107 -4 -118 -68 -27 -153 -116 -467 -185 -648 -64 -168 -207
-482 -215 -473 -2 2 -36 53 -76 113 -40 61 -75 112 -78 115 -4 3 -19 24 -34
47 -32 46 -74 68 -112 59 -29 -7 -29 -7 -95 74 -75 92 -119 139 -255 275 -179
179 -271 258 -470 406 -89 67 -118 87 -176 124 -9 5 -40 26 -70 45 -68 44 -84
54 -197 115 -76 42 -90 53 -86 70 12 49 -12 73 -118 124 -174 83 -267 120
-463 186 -200 67 -505 143 -645 160 -30 4 -57 8 -60 10 -3 1 -32 6 -65 10 -33
3 -73 8 -90 10 -62 8 -153 15 -229 20 -43 3 -80 6 -82 8 -2 1 622 628 1386
1392 765 764 1390 1393 1390 1397 0 11 -157 160 -243 231 -22 18 -49 40 -60
51 -98 84 -369 273 -522 362 -101 59 -293 157 -420 213 -109 49 -110 50 -107
81 4 32 -20 80 -39 80 -6 0 -25 6 -42 14 -56 25 -216 80 -332 114 -72 22 -293
75 -355 86 -19 3 -46 8 -60 11 -42 9 -291 43 -365 51 -71 7 -650 15 -656 10z"/>
<path d="M12715 15735 c-34 -33 -33 -77 1 -104 27 -21 27 -21 1264 -21 1237 0
1237 0 1264 21 34 27 35 71 1 104 l-24 25 -1241 0 -1241 0 -24 -25z"/>
<path d="M7215 14412 c-29 -6 -55 -42 -55 -79 0 -26 14 -48 68 -110 89 -101
211 -257 275 -352 28 -42 53 -78 56 -81 3 -3 12 -16 20 -30 8 -14 39 -64 68
-113 137 -223 271 -516 360 -782 28 -82 54 -164 57 -181 10 -44 38 -66 82 -66
44 0 73 25 75 67 1 25 -33 152 -58 215 -3 8 -7 20 -9 25 -8 32 -73 199 -124
317 -164 379 -374 715 -658 1055 -84 100 -116 123 -157 115z"/>
<path d="M15265 11048 c-59 -21 -114 -97 -115 -159 0 -66 56 -141 120 -160
162 -49 288 142 178 267 -47 54 -119 74 -183 52z m103 -87 c11 -6 25 -24 32
-41 11 -27 11 -37 -3 -66 -32 -65 -119 -68 -151 -5 -23 45 -8 92 37 113 34 16
53 16 85 -1z"/>
<path d="M14895 10900 c-8 -13 -12 -34 -30 -150 -22 -148 -26 -172 -35 -218
-16 -89 11 -186 66 -233 89 -75 255 -42 310 63 51 98 2 235 -101 284 -35 16
-117 16 -157 -1 -13 -5 -16 -2 -14 12 6 33 17 97 20 128 2 17 7 42 11 57 9 35
-10 68 -40 68 -13 0 -27 -4 -30 -10z m192 -331 c34 -18 67 -93 60 -137 -14
-81 -110 -126 -180 -83 -59 36 -83 122 -49 177 35 55 110 74 169 43z"/>
<path d="M14420 10710 c-88 -24 -141 -84 -148 -164 -5 -68 10 -98 46 -94 26 3
27 6 27 62 1 56 3 61 40 92 59 51 129 45 159 -14 24 -47 5 -102 -44 -127 -20
-11 -30 -23 -30 -39 0 -36 20 -46 78 -39 44 5 57 2 87 -18 37 -26 43 -35 55
-88 11 -46 -12 -93 -60 -120 -69 -39 -143 -23 -181 39 -15 26 -31 40 -45 40
-87 1 -15 -134 87 -164 136 -41 290 65 282 194 -5 98 -78 180 -162 184 l-26 1
23 44 c26 53 28 81 5 128 -30 63 -121 103 -193 83z"/>
<path d="M15708 10275 c-2 -2 -39 -6 -83 -10 -44 -4 -83 -8 -86 -10 -3 -2 -28
-7 -55 -11 -27 -3 -52 -8 -55 -10 -3 -2 -19 -6 -36 -8 -143 -26 -385 -108
-558 -191 -114 -55 -267 -143 -273 -157 -2 -4 -8 -8 -13 -8 -25 0 -260 -184
-356 -280 -65 -64 -76 -84 -68 -120 8 -37 39 -60 80 -60 23 1 47 16 105 72
187 177 428 340 640 432 36 15 79 34 95 41 93 41 314 106 440 130 70 13 256
35 333 38 71 3 85 7 102 27 28 32 26 75 -5 106 -23 23 -31 25 -115 23 -49 -1
-90 -3 -92 -4z"/>
<path d="M223 6432 c-12 -2 -33 -16 -47 -33 -22 -25 -23 -33 -15 -66 21 -78
96 -304 119 -358 5 -11 36 -85 70 -163 69 -162 162 -345 246 -483 127 -211
307 -461 417 -583 16 -17 43 -48 60 -68 24 -29 39 -38 63 -38 46 0 63 9 79 41
28 53 26 55 -114 214 -14 17 -48 57 -74 90 -27 33 -54 67 -60 75 -7 8 -23 31
-37 50 -13 19 -27 37 -30 40 -10 9 -155 232 -195 300 -150 257 -295 592 -376
870 -29 101 -49 121 -106 112z"/>
</g>
</svg>
