<svg xmlns="http://www.w3.org/2000/svg" viewBox="0 0 26.87 38.4"><g id="ELEMENTS"><path d="M21.19,0H5.68A5.69,5.69,0,0,0,0,5.68v27A5.69,5.69,0,0,0,5.68,38.4H21.19a5.69,5.69,0,0,0,5.68-5.68v-27A5.69,5.69,0,0,0,21.19,0ZM5.68,2.62H21.19a3.07,3.07,0,0,1,3.06,3.06V27.34H2.62V5.68A3.07,3.07,0,0,1,5.68,2.62ZM21.19,35.78H5.68a3.07,3.07,0,0,1-3.06-3.06V30H24.25v2.76A3.06,3.06,0,0,1,21.19,35.78Z"/><path d="M13.08,6.4A1.05,1.05,0,1,0,12,5.35,1,1,0,0,0,13.08,6.4Z"/><path d="M13.08,31.6a1,1,0,1,0,1.05,1A1,1,0,0,0,13.08,31.6Z"/></g></svg>