<svg id="Layer_1" data-name="Layer 1" xmlns="http://www.w3.org/2000/svg" viewBox="0 0 447.23 308.89"><defs><style>.cls-1{fill:#f1646c;}.cls-2,.cls-3,.cls-4,.cls-5{fill:none;stroke:#fff;stroke-linecap:round;stroke-miterlimit:10;stroke-width:3.79px;}.cls-2{stroke-dasharray:45.48;}.cls-4{stroke-dasharray:50.03 50.03;}.cls-5{stroke-dasharray:58.07 58.07;}.cls-6{fill:#fff;}</style></defs><title>logosnwhite</title><path class="cls-1" d="M191.4,222.57A98.54,98.54,0,0,1,52,361.93" transform="translate(-22.02 -94)"/><path class="cls-1" d="M53.5,264.84A98.54,98.54,0,1,1,192.86,125.49" transform="translate(-22.02 -94)"/><path class="cls-2" d="M122.45,194.44a98.54,98.54,0,0,0,0,197.08" transform="translate(-22.02 -94)"/><path class="cls-2" d="M122.45,293a98.54,98.54,0,0,0,0-197.08" transform="translate(-22.02 -94)"/><path class="cls-1" d="M122.45,194.44V95.9a98.54,98.54,0,0,0,0,197.08v98.54a98.54,98.54,0,0,0,0-197.08Z" transform="translate(-22.02 -94)"/><path class="cls-2" d="M122.45,194.44a98.54,98.54,0,0,1,0,197.08" transform="translate(-22.02 -94)"/><path class="cls-2" d="M122.45,293a98.54,98.54,0,0,1,0-197.08" transform="translate(-22.02 -94)"/><polygon class="cls-1" points="384.75 1.9 384.75 217.75 225.51 1.9 225.51 297.52 384.75 297.52 443.6 297.52 445.33 297.52 445.33 1.9 384.75 1.9"/><polyline class="cls-3" points="445.33 297.52 225.51 297.52 225.51 1.9"/><line class="cls-3" x1="216.03" y1="1.9" x2="234.98" y2="1.9"/><line class="cls-3" x1="445.33" y1="288.04" x2="445.33" y2="306.99"/><path class="cls-3" d="M362.66,244.65a57.87,57.87,0,0,1,39.88-17.19" transform="translate(-22.02 -94)"/><line class="cls-3" x1="445.33" y1="297.52" x2="445.32" y2="274.78"/><line class="cls-4" x1="445.3" y1="224.75" x2="445.23" y2="49.65"/><polyline class="cls-3" points="445.22 24.64 445.21 1.9 422.47 1.9"/><line class="cls-5" x1="364.4" y1="1.9" x2="277.29" y2="1.9"/><line class="cls-3" x1="248.25" y1="1.9" x2="225.51" y2="1.9"/><path class="cls-6" d="M373.26,230.3a5.39,5.39,0,0,1-2.7.41,4.72,4.72,0,0,1-2.34-.92,4.58,4.58,0,0,1-1.54-2,1.06,1.06,0,0,1,0-.76.84.84,0,0,1,1.16-.47,1.07,1.07,0,0,1,.49.57,3,3,0,0,0,1,1.29,3.12,3.12,0,0,0,1.52.61,3.33,3.33,0,0,0,1.71-.25,3.13,3.13,0,0,0,1.8-1.58,2.76,2.76,0,0,0,0-2.3,3.38,3.38,0,0,0-1-1.35,3.08,3.08,0,0,0-1.39-.63,2.85,2.85,0,0,0-1.54.19.93.93,0,0,1-.73,0,1,1,0,0,1-.52-.54.93.93,0,0,1,0-.73,1,1,0,0,1,.53-.5,2.29,2.29,0,0,0,1-.73,2.62,2.62,0,0,0,.52-1.12,2.14,2.14,0,0,0-.14-1.24,2.07,2.07,0,0,0-1.22-1.22,2.47,2.47,0,0,0-1.88.07,3.29,3.29,0,0,0-1.21.84,2.7,2.7,0,0,0-.64,1.15,2,2,0,0,0,.1,1.25,1.09,1.09,0,0,1,.05.75.82.82,0,0,1-.48.5.85.85,0,0,1-.68,0,1,1,0,0,1-.49-.54,3.72,3.72,0,0,1-.23-2.15,4.17,4.17,0,0,1,1-2,5,5,0,0,1,2-1.37,4.45,4.45,0,0,1,2.19-.33,4.08,4.08,0,0,1,1.93.72,3.72,3.72,0,0,1,1.27,1.64,3,3,0,0,1,.21,1.42,4.08,4.08,0,0,1-.42,1.35,5.12,5.12,0,0,1-.81,1.14,4.6,4.6,0,0,1,2,.23,3.69,3.69,0,0,1,1.47,1,4.78,4.78,0,0,1,1,1.51,4.31,4.31,0,0,1,.29,2.46,4.7,4.7,0,0,1-1,2.19A5.11,5.11,0,0,1,373.26,230.3Z" transform="translate(-22.02 -94)"/><path class="cls-6" d="M384.28,225.77a5,5,0,0,1-2.54.36,4.38,4.38,0,0,1-2.21-.94,4.94,4.94,0,0,1-1.5-2.05,5.05,5.05,0,0,1-.37-2.53,4.38,4.38,0,0,1,.92-2.22,4.94,4.94,0,0,1,2.07-1.51,4.85,4.85,0,0,1,2.51-.36,4.5,4.5,0,0,1,2.21.94,5.38,5.38,0,0,1,1.87,4.59,4.51,4.51,0,0,1-.92,2.22A4.9,4.9,0,0,1,384.28,225.77Zm-6.6-5.23,1.43-9.22a1,1,0,0,1,.6-.79,1,1,0,0,1,.69,0,.91.91,0,0,1,.51.39,1,1,0,0,1,.12.67l-.91,5.78Zm5.94,3.66a3,3,0,0,0,1.27-.95,2.78,2.78,0,0,0,.57-1.42,3.31,3.31,0,0,0-.24-1.62,3.4,3.4,0,0,0-1-1.35,2.92,2.92,0,0,0-3-.42,2.89,2.89,0,0,0-1.27,1,2.8,2.8,0,0,0-.56,1.42,3.46,3.46,0,0,0,.27,1.64,3.27,3.27,0,0,0,1,1.33,2.64,2.64,0,0,0,1.38.62A2.94,2.94,0,0,0,383.62,224.2Z" transform="translate(-22.02 -94)"/><path class="cls-6" d="M391.05,214.72A3.79,3.79,0,0,1,389,215a4.07,4.07,0,0,1-1.89-.79,4,4,0,0,1-1.27-1.67,3.85,3.85,0,0,1-.25-2.06,4.24,4.24,0,0,1,.79-1.9,3.72,3.72,0,0,1,1.65-1.27,3.88,3.88,0,0,1,2.09-.26,4.12,4.12,0,0,1,1.9.8,3.83,3.83,0,0,1,1.27,1.65,3.87,3.87,0,0,1,.25,2.09,4.37,4.37,0,0,1-.81,1.89A3.77,3.77,0,0,1,391.05,214.72Zm-.72-1.76a2.1,2.1,0,0,0,.88-.67,2.16,2.16,0,0,0,.41-1,2.12,2.12,0,0,0-.79-2,2.28,2.28,0,0,0-1-.42,2.07,2.07,0,0,0-1.09.14,2.09,2.09,0,0,0-.86.66,2.29,2.29,0,0,0-.42,1,2.11,2.11,0,0,0,.79,2,2,2,0,0,0,1,.42A2.15,2.15,0,0,0,390.33,213Z" transform="translate(-22.02 -94)"/></svg>