<?xml version="1.0" encoding="utf-8"?>
<!-- Generator: Adobe Illustrator 24.0.2, SVG Export Plug-In . SVG Version: 6.00 Build 0)  -->
<svg version="1.1" id="Layer_1" xmlns="http://www.w3.org/2000/svg" xmlns:xlink="http://www.w3.org/1999/xlink" x="0px" y="0px"
	 viewBox="0 0 447.2 308.9" style="enable-background:new 0 0 447.2 308.9;" xml:space="preserve">
<style type="text/css">
	.st0{fill:#F1646C;}
</style>
<title>logosnblack</title>
<g>
	<path class="st0" d="M169.4,128.6c38.5,38.5,38.5,100.9,0,139.4s-100.9,38.5-139.4,0c0,0,0,0,0,0"/>
</g>
<g>
	<path class="st0" d="M31.5,170.8c-38.7-38.3-39-100.7-0.7-139.4s100.7-39,139.4-0.7c0.2,0.2,0.4,0.4,0.7,0.7"/>
</g>
<g>
	<path d="M100.4,299.4c-12.6,0-25-2.3-36.6-6.9c-1-0.4-1.5-1.5-1.1-2.5s1.5-1.5,2.5-1.1c11.2,4.4,23.1,6.6,35.3,6.6
		c1,0,1.9,0.8,1.9,1.9S101.5,299.4,100.4,299.4z M27.4,267c-0.5,0-1-0.2-1.4-0.6C15.6,254.9,7.9,241,3.7,226.2
		c-0.3-1,0.3-2.1,1.3-2.3c1-0.3,2.1,0.3,2.3,1.3c4,14.3,11.4,27.6,21.4,38.7c0.7,0.8,0.6,2-0.1,2.7C28.3,266.9,27.9,267,27.4,267z
		 M3.6,182.6c-0.1,0-0.2,0-0.4,0c-1-0.2-1.7-1.2-1.5-2.2c2.8-15.1,9.3-29.7,18.6-42c0.6-0.8,1.8-1,2.7-0.4c0.8,0.6,1,1.8,0.4,2.7
		c-9,11.9-15.2,25.8-17.9,40.4C5.3,181.9,4.5,182.6,3.6,182.6z M56.6,112.6c-0.7,0-1.4-0.4-1.7-1.1c-0.5-0.9-0.1-2.1,0.9-2.5
		c14-7,29-10.5,44.7-10.5c1,0,1.9,0.8,1.9,1.9s-0.8,1.9-1.9,1.9c-15.1,0-29.6,3.4-43,10.1C57.1,112.6,56.8,112.6,56.6,112.6z"/>
</g>
<g>
	<path d="M100.4,200.9c-1,0-1.9-0.8-1.9-1.9s0.8-1.9,1.9-1.9c15.1,0,29.6-3.4,43-10.1c0.9-0.5,2.1-0.1,2.5,0.9
		c0.5,0.9,0.1,2.1-0.9,2.5C131.2,197.4,116.1,200.9,100.4,200.9z M179,161.8c-0.4,0-0.8-0.1-1.1-0.4c-0.8-0.6-1-1.8-0.4-2.7
		c9-11.9,15.2-25.8,17.9-40.4c0.2-1,1.2-1.7,2.2-1.5c1,0.2,1.7,1.2,1.5,2.2c-2.8,15.1-9.3,29.7-18.6,42
		C180.1,161.6,179.6,161.8,179,161.8z M195.3,75.6c-0.8,0-1.6-0.5-1.8-1.4C189.5,60,182,46.6,172,35.6c-0.7-0.8-0.6-2,0.1-2.7
		c0.8-0.7,2-0.6,2.7,0.1c10.4,11.5,18.1,25.4,22.3,40.2c0.3,1-0.3,2.1-1.3,2.3C195.6,75.6,195.5,75.6,195.3,75.6z M136.4,10.6
		c-0.2,0-0.5,0-0.7-0.1c-11.2-4.4-23.1-6.6-35.2-6.6c-1,0-1.9-0.8-1.9-1.9S99.4,0,100.4,0l0,0c12.6,0,25,2.3,36.6,6.9
		c1,0.4,1.5,1.5,1.1,2.5C137.8,10.1,137.1,10.6,136.4,10.6z"/>
</g>
<g>
	<path class="st0" d="M100.4,100.4V1.9C46,1.9,1.9,46,1.9,100.4S46,199,100.4,199v98.5c54.4,0,98.5-44.1,98.5-98.5
		C199,144.6,154.8,100.4,100.4,100.4L100.4,100.4z"/>
</g>
<g>
	<path d="M100.4,299.4c-1,0-1.9-0.8-1.9-1.9s0.8-1.9,1.9-1.9c12.2,0,24-2.2,35.3-6.6c1-0.4,2.1,0.1,2.5,1.1c0.4,1-0.1,2.1-1.1,2.5
		C125.4,297.1,113.1,299.4,100.4,299.4z M173.5,267c-0.5,0-0.9-0.2-1.3-0.5c-0.8-0.7-0.8-1.9-0.1-2.7c10-11,17.4-24.4,21.4-38.7
		c0.3-1,1.3-1.6,2.3-1.3c1,0.3,1.6,1.3,1.3,2.3c-4.2,14.8-11.9,28.7-22.3,40.2C174.5,266.8,174,267,173.5,267z M197.3,182.6
		c-0.9,0-1.7-0.6-1.9-1.5c-2.7-14.6-8.9-28.5-17.9-40.4c-0.6-0.8-0.5-2,0.4-2.7c0.8-0.6,2-0.5,2.7,0.4c9.3,12.3,15.8,26.8,18.6,42
		c0.2,1-0.5,2-1.5,2.2C197.5,182.6,197.4,182.6,197.3,182.6z M144.3,112.6c-0.3,0-0.6-0.1-0.8-0.2c-13.4-6.7-27.9-10.1-43-10.1
		c-1,0-1.9-0.8-1.9-1.9s0.8-1.9,1.9-1.9c15.7,0,30.8,3.5,44.7,10.5c0.9,0.5,1.3,1.6,0.9,2.5C145.7,112.2,145,112.6,144.3,112.6z"/>
</g>
<g>
	<path d="M100.4,200.9L100.4,200.9c-15.7,0-30.8-3.5-44.7-10.5c-0.9-0.5-1.3-1.6-0.9-2.5c0.5-0.9,1.6-1.3,2.5-0.9
		c13.4,6.7,27.9,10.1,43,10.1c1,0,1.9,0.8,1.9,1.9S101.5,200.9,100.4,200.9z M21.9,161.8c-0.6,0-1.1-0.3-1.5-0.8
		c-9.3-12.3-15.8-26.8-18.6-42c-0.2-1,0.5-2,1.5-2.2c1-0.2,2,0.5,2.2,1.5c2.7,14.6,8.9,28.5,17.9,40.4c0.6,0.8,0.5,2-0.4,2.7
		C22.7,161.7,22.3,161.8,21.9,161.8z M5.6,75.6c-0.2,0-0.3,0-0.5-0.1c-1-0.3-1.6-1.3-1.3-2.3C7.9,58.4,15.6,44.5,26,33
		c0.7-0.8,1.9-0.8,2.7-0.1c0.8,0.7,0.8,1.9,0.1,2.7c-10,11-17.4,24.4-21.4,38.7C7.2,75.1,6.4,75.6,5.6,75.6z M64.5,10.6
		c-0.8,0-1.5-0.5-1.8-1.2c-0.4-1,0.1-2.1,1.1-2.5C75.5,2.3,87.8,0,100.4,0c1,0,1.9,0.8,1.9,1.9c0,1-0.8,1.9-1.9,1.9
		c-12.2,0-24,2.2-35.3,6.6C65,10.5,64.7,10.6,64.5,10.6z"/>
</g>
<g>
	<polygon class="st0" points="384.8,1.9 384.8,217.8 225.5,1.9 225.5,297.5 384.8,297.5 443.6,297.5 445.3,297.5 445.3,1.9 	"/>
</g>
<g>
	<path d="M445.3,299.4H223.6V1.9c0-1,0.8-1.9,1.9-1.9c1,0,1.9,0.8,1.9,1.9v293.7h217.9c1,0,1.9,0.8,1.9,1.9S446.4,299.4,445.3,299.4
		z"/>
</g>
<g>
	<path d="M235,3.8h-19c-1,0-1.9-0.8-1.9-1.9S215,0,216,0h19c1,0,1.9,0.8,1.9,1.9S236,3.8,235,3.8z"/>
</g>
<g>
	<path d="M445.3,308.9c-1,0-1.9-0.8-1.9-1.9v-19c0-1,0.8-1.9,1.9-1.9s1.9,0.8,1.9,1.9v19C447.2,308,446.4,308.9,445.3,308.9z"/>
</g>
<g>
	<path d="M340.6,152.5c-0.5,0-1-0.2-1.3-0.5c-0.7-0.7-0.8-1.9,0-2.7c11-11.1,25.6-17.4,41.2-17.8c0,0,0,0,0,0c1,0,1.9,0.8,1.9,1.9
		c0,1-0.8,1.9-1.9,1.9c-14.6,0.3-28.3,6.2-38.6,16.6C341.6,152.4,341.1,152.5,340.6,152.5z"/>
</g>
<g>
	<path d="M445.3,299.4c-1,0-1.9-0.8-1.9-1.9l0-22.7c0-1,0.8-1.9,1.9-1.9h0c1,0,1.9,0.8,1.9,1.9l0,22.7
		C447.2,298.6,446.4,299.4,445.3,299.4L445.3,299.4z"/>
</g>
<g>
	<path d="M445.3,226.6c-1,0-1.9-0.8-1.9-1.9l0-50c0-1,0.8-1.9,1.9-1.9h0c1,0,1.9,0.8,1.9,1.9l0,50
		C447.2,225.8,446.3,226.6,445.3,226.6L445.3,226.6z M445.3,126.6c-1,0-1.9-0.8-1.9-1.9l0-50c0-1,0.8-1.9,1.9-1.9h0
		c1,0,1.9,0.8,1.9,1.9l0,50C447.2,125.7,446.3,126.6,445.3,126.6L445.3,126.6z"/>
</g>
<g>
	<path d="M445.2,26.5c-1,0-1.9-0.8-1.9-1.9l0-20.8h-20.8c-1,0-1.9-0.8-1.9-1.9s0.8-1.9,1.9-1.9h24.6l0,24.6
		C447.1,25.7,446.3,26.5,445.2,26.5L445.2,26.5z"/>
</g>
<g>
	<path d="M364.4,3.8h-58.1c-1,0-1.9-0.8-1.9-1.9s0.8-1.9,1.9-1.9h58.1c1,0,1.9,0.8,1.9,1.9S365.4,3.8,364.4,3.8z"/>
</g>
<g>
	<path d="M248.3,3.8h-22.7c-1,0-1.9-0.8-1.9-1.9s0.8-1.9,1.9-1.9h22.7c1,0,1.9,0.8,1.9,1.9S249.3,3.8,248.3,3.8z"/>
</g>
<g>
	<path d="M351.2,136.3c-0.8,0.4-1.8,0.5-2.7,0.4c-0.8-0.1-1.7-0.4-2.3-0.9c-0.7-0.5-1.2-1.2-1.5-2c-0.1-0.2-0.1-0.5,0-0.8
		c0.2-0.4,0.6-0.7,1.1-0.5c0,0,0.1,0,0.1,0c0.2,0.1,0.4,0.3,0.5,0.6c0.2,0.5,0.6,1,1,1.3c0.4,0.3,1,0.5,1.5,0.6
		c0.6,0.1,1.2,0,1.7-0.3c0.8-0.3,1.4-0.8,1.8-1.6c0.3-0.7,0.3-1.6,0-2.3c-0.2-0.5-0.6-1-1-1.4c-0.4-0.3-0.9-0.5-1.4-0.6
		c-0.5-0.1-1.1,0-1.5,0.2c-0.2,0.1-0.5,0.1-0.7,0c-0.2-0.1-0.4-0.3-0.5-0.5c-0.1-0.2-0.1-0.5,0-0.7c0.1-0.2,0.3-0.4,0.5-0.5
		c0.4-0.1,0.7-0.4,1-0.7c0.3-0.3,0.4-0.7,0.5-1.1c0.1-0.4,0-0.8-0.1-1.2c-0.2-0.6-0.7-1-1.2-1.2c-0.6-0.2-1.3-0.2-1.9,0.1
		c-0.5,0.2-0.9,0.5-1.2,0.8c-0.3,0.3-0.5,0.7-0.6,1.1c-0.1,0.4-0.1,0.9,0.1,1.3c0.1,0.2,0.1,0.5,0,0.8c-0.1,0.2-0.3,0.4-0.5,0.5
		c-0.2,0.1-0.5,0.1-0.7,0c-0.2-0.1-0.4-0.3-0.5-0.5c-0.3-0.7-0.4-1.4-0.2-2.1c0.1-0.7,0.5-1.4,1-2c0.5-0.6,1.2-1.1,2-1.4
		c0.7-0.3,1.4-0.4,2.2-0.3c0.7,0.1,1.4,0.3,1.9,0.7c0.6,0.4,1,1,1.3,1.6c0.2,0.4,0.3,0.9,0.2,1.4c-0.1,0.5-0.2,0.9-0.4,1.4
		c-0.2,0.4-0.5,0.8-0.8,1.1c0.7-0.1,1.4,0,2,0.2c0.6,0.2,1.1,0.6,1.5,1c0.4,0.4,0.8,0.9,1,1.5c0.3,0.8,0.4,1.6,0.3,2.5
		c-0.1,0.8-0.5,1.6-1,2.2C352.9,135.5,352.1,136,351.2,136.3z"/>
</g>
<g>
	<path d="M362.3,131.8c-0.8,0.3-1.7,0.5-2.5,0.4c-0.8-0.1-1.6-0.4-2.2-0.9c-0.7-0.5-1.2-1.2-1.5-2.1c-0.3-0.8-0.5-1.7-0.4-2.5
		c0.1-0.8,0.4-1.6,0.9-2.2c0.5-0.7,1.3-1.2,2.1-1.5c0.8-0.3,1.7-0.5,2.5-0.4c0.8,0.1,1.6,0.4,2.2,0.9c1.3,1.1,2,2.8,1.9,4.6
		c-0.1,0.8-0.4,1.6-0.9,2.2C363.8,130.9,363.1,131.5,362.3,131.8z M355.7,126.5l1.4-9.2c0-0.4,0.3-0.7,0.6-0.8
		c0.2-0.1,0.5-0.1,0.7,0c0.2,0.1,0.4,0.2,0.5,0.4c0.1,0.2,0.2,0.4,0.1,0.7l-0.9,5.8L355.7,126.5z M361.6,130.2
		c0.5-0.2,0.9-0.5,1.3-0.9c0.3-0.4,0.5-0.9,0.6-1.4c0.1-0.6,0-1.1-0.2-1.6c-0.2-0.5-0.6-1-1-1.4c-0.8-0.7-2-0.9-3-0.4
		c-0.5,0.2-1,0.6-1.3,1c-0.3,0.4-0.5,0.9-0.6,1.4c0,0.6,0,1.1,0.3,1.6c0.2,0.5,0.6,1,1,1.3c0.4,0.3,0.9,0.6,1.4,0.6
		C360.6,130.5,361.1,130.4,361.6,130.2L361.6,130.2z"/>
</g>
<g>
	<path d="M369,120.7c-0.6,0.3-1.4,0.4-2,0.3c-0.7-0.1-1.3-0.4-1.9-0.8c-0.6-0.4-1-1-1.3-1.7c-0.3-0.7-0.4-1.4-0.3-2.1
		c0.1-0.7,0.4-1.3,0.8-1.9c0.4-0.6,1-1,1.6-1.3c0.7-0.3,1.4-0.4,2.1-0.3c0.7,0.1,1.3,0.4,1.9,0.8c0.6,0.4,1,1,1.3,1.6
		c0.3,0.7,0.4,1.4,0.3,2.1c-0.1,0.7-0.4,1.3-0.8,1.9C370.3,120,369.7,120.5,369,120.7z M368.3,119c0.3-0.1,0.7-0.4,0.9-0.7
		c0.2-0.3,0.4-0.6,0.4-1c0.1-0.8-0.2-1.5-0.8-2c-0.3-0.2-0.6-0.4-1-0.4c-0.4-0.1-0.7,0-1.1,0.1c-0.3,0.1-0.6,0.4-0.9,0.7
		c-0.2,0.3-0.4,0.6-0.4,1c-0.1,0.8,0.2,1.5,0.8,2c0.3,0.2,0.6,0.4,1,0.4C367.6,119.2,368,119.1,368.3,119L368.3,119z"/>
</g>
</svg>
