<svg id="Layer_1" data-name="Layer 1" xmlns="http://www.w3.org/2000/svg" viewBox="0 0 139.3 79.62"><defs><style>.cls-1{fill:#fff;}</style></defs><title>logo-happyitalywit</title><path class="cls-1" d="M18.7,37c.7,0,1.1.5,1.1,1.4v2.4c0,3.3,1,13.1,3.1,29.4v.6q0,1.8-1.2,1.8c-.7-.1-1.1-.5-1.1-1.1v-.8c0-1.5-.6-6.7-1.9-15.7-3.5.2-5.2.5-5.2.8l.1.1V56c.3,5.2.5,9.9.5,14.1V73c0,1.2-.4,1.8-1.3,1.8-.5,0-.9-.4-.9-1.3V70.7c0-5-.2-9.8-.5-14.5h-.2a1.6,1.6,0,0,1-1.4-.8v-.6a1.74,1.74,0,0,1,1.4-.9c0-1.9-.6-6.9-1.9-15.2,0-.6.5-1,1.4-1.1.6,0,1.1,1.8,1.4,5.4.3,1.6.7,5,1.3,10.1h.1l5.1-.5a126.78,126.78,0,0,1-1.2-13.8C17.4,37.7,17.8,37,18.7,37Z" transform="translate(-8.7 -6.78)"/><path class="cls-1" d="M12.8,75.5c-.5,0-1.3-.2-1.5-1.8h0V70.9c0-4.8-.1-9.5-.4-13.9a2,2,0,0,1-1.6-1.1l-.1-.1v-.9l.1-.1a2.43,2.43,0,0,1,1.3-1c-.1-2.1-.7-7.1-1.9-14.7V39c0-.5.2-1.4,1.9-1.6h.1c.9,0,1.5,1,2,5.9.3,1.6.7,4.7,1.2,9.6l4.1-.4c-.7-6.1-1.1-10.6-1.1-13.3,0-2.2,1.2-2.6,1.8-2.6s1.6.2,1.6,2V41c0,3.2,1,13.1,3.1,29.4v.7c0,2-1.1,2.3-1.7,2.3h-.1c-1-.2-1.5-.7-1.5-1.6V71c0-1.4-.6-6.5-1.8-15.1a16.65,16.65,0,0,0-4,.5h0c.3,5.1.5,9.9.5,14.1v2.9C14.7,75.3,13.4,75.5,12.8,75.5Zm-.4-1.9c.1.8.3.8.4.8.3,0,.7,0,.7-1.2V70.3c0-4.2-.2-8.9-.5-14v-.4c0-.6.3-1.1,5.7-1.4h.5l.1.5c1.3,9.1,1.9,14.2,1.9,15.7v.8c0,.2,0,.4.6.5.2,0,.6-.1.6-1.2v-.6c-2-16.3-3.1-26.2-3.1-29.5V38.3c0-.9-.3-.9-.5-.9s-.7,0-.7,1.5a125.48,125.48,0,0,0,1.2,13.7l.1.6-5.8.5h-.5l-.1-.5c-.5-5.1-1-8.5-1.3-10.1V43c-.3-3.8-.8-4.7-.9-4.9-.7.1-.8.3-.8.5,1.3,8.3,1.9,13.3,1.9,15.2v.5l-.5.1a1.21,1.21,0,0,0-.9.6v.2a1,1,0,0,0,.9.4h.7v.5c.3,4.6.5,9.5.5,14.5v3Z" transform="translate(-8.7 -6.78)"/><path class="cls-1" d="M34.6,37.3c.4,0,.7.4,1.1,1.1l-.1.6c2.2,14.3,3.7,25.2,4.6,32.7-.2.7-.6,1.1-1.2,1.1q-1.35,0-1.5-5.7L37,64.2l-2,.1c-1.3,0-3.3-.2-5.9-.5-1.8,6.3-3.1,9.4-3.8,9.4h-.1Q24,72.9,24,72c2-4.9,4.2-13.4,6.6-25.3,1-3.7,2-6.7,2.8-9A1.59,1.59,0,0,1,34.6,37.3Zm-5,24.2A21.18,21.18,0,0,0,34,62h2a.75.75,0,0,0,.7-.4L34,43.5h-.1q-.75,1.2-2.1,8.1Z" transform="translate(-8.7 -6.78)"/><path class="cls-1" d="M25.3,73.7h-.2c-1.4-.3-1.6-1.2-1.6-1.7v-.2c2-4.9,4.2-13.4,6.6-25.2h0c1-3.7,2-6.7,2.8-9v-.1l.1-.1a2.27,2.27,0,0,1,1.6-.6c.9,0,1.4,1,1.6,1.4l.1.2-.1.7c2.2,14.2,3.7,25.2,4.6,32.7V72c-.4,1.2-1.1,1.4-1.7,1.4-1.3,0-1.9-1.8-2.1-6.1l-.4-2.4-1.5.1a45.17,45.17,0,0,1-5.5-.4C26.7,73.7,25.9,73.7,25.3,73.7Zm-.8-1.6c0,.2.1.4.7.5.3-.2,1.2-1.6,3.3-9l.1-.4.5.1c2.6.3,4.5.5,5.8.5l2.5-.1.6,3.5c.2,4.9,1,5.1,1,5.1s.4,0,.6-.6C38.7,64.1,37.1,53.1,35,39v-.1l.1-.5c-.3-.6-.5-.6-.5-.6a1.45,1.45,0,0,0-.7.2c-.8,2.2-1.8,5.2-2.8,8.8C28.8,58.6,26.5,67.1,24.5,72.1ZM36,62.5H34a22.15,22.15,0,0,1-4.5-.5l-.5-.1,2.2-10.4c1.3-6.3,1.9-7.8,2.2-8.3l.2-.3h.9l2.8,18.8-.2.3A1.61,1.61,0,0,1,36,62.5Zm-5.7-1.4a22.18,22.18,0,0,0,3.7.3h2.1L33.7,45.5c-.3,1.2-.8,3.1-1.4,6.3Z" transform="translate(-8.7 -6.78)"/><path class="cls-1" d="M46.3,36.5c2.4,0,4.3,1.5,5.5,4.6l.2,1.4c0,2.8-1.6,6.6-4.8,11.2a10.08,10.08,0,0,1-2.9,2l.1,1.1.2,14.6c0,.6-.4.9-1.2,1.1-.7,0-1.1-.5-1.1-1.4,0-10.9-.2-16.4-.7-16.4a4.08,4.08,0,0,1-.9-2q0-.75,1.2-.9l-.4-11.5c0-1.9.4-2.8,1.2-2.8l.7.1A4.41,4.41,0,0,1,46.3,36.5ZM43.9,40l.2,12.2.1.8c1.6-.6,3.2-3.1,4.8-7.4a9.1,9.1,0,0,0,.7-3.5c-.7-2.3-1.8-3.4-3.3-3.4H46A3,3,0,0,0,43.9,40Z" transform="translate(-8.7 -6.78)"/><path class="cls-1" d="M43.5,73h0c-.5,0-1.6-.2-1.6-2,0-12.1-.3-15.2-.5-15.9l-.2-.1a4.28,4.28,0,0,1-1-2.3c0-.5.2-1,1.2-1.4L41,40.2c0-2.3.6-3.4,1.7-3.4h.1l.5.1a5.73,5.73,0,0,1,2.9-.9c2.7,0,4.7,1.7,6,4.9V41l.2,1.5c0,3-1.6,6.8-4.9,11.5l-.1.1a10.3,10.3,0,0,1-2.7,2l.1.7L45,71.4c.2.4,0,1.4-1.5,1.6ZM42,54.2c.6.3.9,2.5.9,16.9,0,.8.3.9.5.9.7-.1.7-.4.7-.5l-.2-14.6-.2-1.5.4-.1a9,9,0,0,0,2.7-1.8c3.1-4.4,4.7-8.1,4.7-10.8l-.2-1.3c-1.2-2.8-2.8-4.2-5-4.2a4.26,4.26,0,0,0-2.5.9l-.2-.1-.9-.1c-.4,0-.6.9-.6,2.3l.4,12H42c-.2,0-.7.2-.7.4A3.3,3.3,0,0,0,42,54.2Zm1.8-.3-.2-1.6-.2-12.4.1-.1a3.14,3.14,0,0,1,2.6-1.5h.5c1.8,0,3.1,1.3,3.8,3.8v.2a12.1,12.1,0,0,1-.7,3.7c-1.7,4.5-3.3,7-5.1,7.7Zm.7-13.7.2,12c1-.7,2.3-2.6,3.9-6.7a9.76,9.76,0,0,0,.7-3.3c-.6-2-1.5-2.9-2.7-2.9H46A1.89,1.89,0,0,0,44.5,40.2Z" transform="translate(-8.7 -6.78)"/><path class="cls-1" d="M57.9,36.5c2.4,0,4.3,1.5,5.5,4.6l.2,1.4c0,2.8-1.6,6.6-4.8,11.2a10.08,10.08,0,0,1-2.9,2l.1,1.1.2,14.6c0,.6-.4.9-1.2,1.1-.6-.1-1-.5-1-1.5,0-10.9-.2-16.4-.7-16.4a4.08,4.08,0,0,1-.9-2q0-.75,1.2-.9l-.4-11.5c0-1.9.4-2.8,1.2-2.8l.7.1A4.58,4.58,0,0,1,57.9,36.5ZM55.5,40l.2,12.2.1.8c1.6-.6,3.2-3.1,4.8-7.4a9.1,9.1,0,0,0,.7-3.5c-.7-2.3-1.8-3.4-3.3-3.4h-.5A3.3,3.3,0,0,0,55.5,40Z" transform="translate(-8.7 -6.78)"/><path class="cls-1" d="M55.1,73h0c-.5,0-1.6-.2-1.6-2,0-12.1-.3-15.2-.5-15.9l-.1-.1a4.28,4.28,0,0,1-1-2.3c0-.5.2-1,1.2-1.4l-.3-11.1c0-2.3.6-3.4,1.7-3.4h.1l.5.1A5.73,5.73,0,0,1,58,36c2.7,0,4.7,1.7,6,4.9V41l.2,1.5c0,3-1.6,6.8-4.9,11.5l-.1.1a13.23,13.23,0,0,1-2.7,2l.1.7.2,14.6c0,.5-.2,1.4-1.7,1.6ZM53.6,54.2c.4.2.6,1.1.8,4.6.1,2.7.2,6.9.2,12.3,0,.8.3.9.5.9.7-.1.7-.4.7-.5l-.2-14.6-.2-1.5.4-.1a9,9,0,0,0,2.7-1.8c3.1-4.5,4.7-8.1,4.7-10.8L63,41.4c-1.2-2.8-2.8-4.2-5-4.2a4.26,4.26,0,0,0-2.5.9l-.3-.1-.9-.1c-.4,0-.6.9-.6,2.3l.4,12-.5.1c-.2,0-.7.2-.7.4A3.63,3.63,0,0,0,53.6,54.2Zm1.9-.3-.2-1.6L55,39.9l.1-.1a3.14,3.14,0,0,1,2.6-1.5h.5c1.8,0,3.1,1.3,3.8,3.8v.2a12.1,12.1,0,0,1-.7,3.7c-1.7,4.5-3.3,7-5.1,7.7Zm.6-13.7.2,12c1-.7,2.3-2.6,3.9-6.7a9.76,9.76,0,0,0,.7-3.3c-.6-2-1.5-2.9-2.7-2.9h-.5A2.06,2.06,0,0,0,56.1,40.2Z" transform="translate(-8.7 -6.78)"/><path class="cls-1" d="M78,37c.4,0,.7.4,1.1,1.1a130.39,130.39,0,0,0-3,18.2,146.06,146.06,0,0,1-2.4,16.6l-.7.5c-.9-.3-1.3-.6-1.3-1.1l2.2-14.7a20.76,20.76,0,0,1-3.6-6.5,72,72,0,0,0-6-11.4l-.4-.9c0-.6.4-.9,1.3-1.1.4.1,1.1,1,1.9,2.7,1.7,2.3,3.9,6.5,6.5,12.7l.4,1C75.6,41.5,76.9,35.8,78,37Z" transform="translate(-8.7 -6.78)"/><path class="cls-1" d="M73.1,74l-.3-.1c-1.1-.3-1.7-.9-1.7-1.6v-.1l2.1-14.5a21.45,21.45,0,0,1-3.5-6.5,74,74,0,0,0-5.9-11.3v-.1l-.4-1v-.1c0-.6.3-1.3,1.7-1.6h.2c.5.1,1.1.5,2.3,3A65,65,0,0,1,73.7,52c2-15.1,3.1-15.5,3.8-15.7a1.06,1.06,0,0,1,.8.1,2,2,0,0,1,1.3,1.3l.1.2v.2a126.57,126.57,0,0,0-3,18.1,148.12,148.12,0,0,1-2.4,16.7v.2Zm-.9-1.7c0,.1.2.3.7.4l.3-.2a143.32,143.32,0,0,0,2.4-16.3,126.57,126.57,0,0,1,3-18.1,1.61,1.61,0,0,0-.5-.6h-.2l-.1-.1c-.5.6-1.6,3.5-3.2,16.7l-.3,2.1-1.2-3c-2.6-6.1-4.7-10.4-6.4-12.6l-.1-.1a8.37,8.37,0,0,0-1.5-2.4,1,1,0,0,0-.7.4l.3.8a68.17,68.17,0,0,1,6,11.5,21.63,21.63,0,0,0,3.5,6.3l.2.2Z" transform="translate(-8.7 -6.78)"/><path class="cls-1" d="M94.2,36.9h.1c2,.1,2.9.3,2.9.8v.7a1.42,1.42,0,0,1-.9.8l-1.6-.1h-.8v.1c.4,20,.9,30,1.6,30l4-.6a1.17,1.17,0,0,1,.8,1.1v.1c0,.8-1.5,1.3-4.6,1.5a25.93,25.93,0,0,1-4.7.6,1.17,1.17,0,0,1-.8-1.1c0-.9.9-1.3,2.8-1.3v-.1c-.6-4.1-1.1-14.1-1.4-30.1h-.1l-3.4.7a1.38,1.38,0,0,1-.9-1.3c0-.7,1.6-1.2,4.7-1.5C91.9,37,92.7,36.9,94.2,36.9Z" transform="translate(-8.7 -6.78)"/><path class="cls-1" d="M91.1,72.6h-.2A1.66,1.66,0,0,1,89.7,71c0-1.1.9-1.7,2.8-1.8-.6-4.3-1-14.1-1.3-29.1l-3.2.4-.1-.1a1.86,1.86,0,0,1-1.3-1.8c0-1.1,1.5-1.7,5-2.1a9.21,9.21,0,0,1,2.6-.3h.1c1.8.1,3.5.3,3.5,1.4v.8l-.1.1a2.07,2.07,0,0,1-1.3,1.1h-.1l-1.7-.1h-.2c.4,22.2,1,27.8,1.4,29l3.8-.6.1.1a1.66,1.66,0,0,1,1.2,1.6v.1c0,1.2-1.5,1.8-5.1,2.1A16.87,16.87,0,0,1,91.1,72.6Zm2-2.4c-.7,0-2.3.1-2.3.7,0,.1,0,.3.4.5a23.22,23.22,0,0,0,4.5-.6h.1c3.9-.3,4.1-1,4.1-1v-.1c0-.1,0-.3-.4-.5l-3.9.6c-.6,0-.9-.7-1.1-2.4-.2-1.3-.3-3.2-.4-5.7-.3-5-.5-12.6-.7-22.5v-.7h1.4l1.5.1a1,1,0,0,0,.5-.4v-.5c-.1-.1-.6-.3-2.4-.4h-.1c-1,0-1.5.1-1.8.1v.1l-.5.1c-3.6.4-4.1.9-4.2,1a.79.79,0,0,0,.5.7l3.3-.6h.7v.5c.3,15.9.8,26,1.4,30.1v.8h-.6Z" transform="translate(-8.7 -6.78)"/><path class="cls-1" d="M104.6,36.5h1.9c2.4,0,4.1.4,4.9,1.3l.2.7v.1c0,.6-.4,1-1.2,1.1-.8-.6-2.2-.9-4.5-.9h-.4v.1c0,4.6.1,11,.2,19.2s.5,12.7,1.1,13.6c-.3.7-.7,1.1-1.3,1.1-1,1.1-1.7-3.2-1.9-12.9s-.3-16.7-.3-21v-.1L100,39a1.35,1.35,0,0,1-.9-1.2C99.2,36.9,101,36.5,104.6,36.5Z" transform="translate(-8.7 -6.78)"/><path class="cls-1" d="M105.3,73.4a.37.37,0,0,1-.3-.1c-.6-.2-1.6-.6-1.9-13.5-.2-9.3-.3-16.2-.3-20.5l-2.9.2-.1-.1a2,2,0,0,1-1.3-1.7c0-1.3,1.8-1.8,6-1.8h1.9c2.6,0,4.4.5,5.3,1.5l.1.1.3.9v.2a1.61,1.61,0,0,1-1.7,1.6h-.2l-.2-.1c-.4-.4-1.5-.8-3.9-.8,0,4.6.1,10.9.2,18.8.1,10.9.8,12.9,1,13.2l.2.2-.1.3a2,2,0,0,1-1.6,1.4A.76.76,0,0,1,105.3,73.4Zm-1.4-35.3v.7q0,6.45.3,21c.2,9.3.8,11.7,1.1,12.4h.2a.79.79,0,0,0,.7-.5c-.5-1-.9-3.8-1.1-13.6-.1-8.1-.2-14.6-.2-19.2v-.7h.9a8.6,8.6,0,0,1,4.6.9c.5-.1.5-.3.5-.5h0l-.2-.5c-.8-.7-2.3-1-4.5-1h-1.9c-4.7,0-4.9.7-4.9.7s0,.3.5.6Z" transform="translate(-8.7 -6.78)"/><path class="cls-1" d="M120.2,37.3c.4,0,.7.4,1.1,1.1l-.1.6c2.2,14.3,3.7,25.2,4.6,32.7-.2.7-.6,1.1-1.2,1.1q-1.35,0-1.5-5.7l-.5-2.9-2,.1c-1.3,0-3.3-.2-5.9-.5-1.8,6.3-3.1,9.4-3.8,9.4h-.1q-1.2-.3-1.2-1.2c2-4.9,4.2-13.4,6.6-25.3,1-3.7,2-6.7,2.8-9A1.59,1.59,0,0,1,120.2,37.3Zm-5,24.2a20.43,20.43,0,0,0,4.4.5h2a.75.75,0,0,0,.7-.4l-2.7-18.1h-.1q-.75,1.2-2.1,8.1Z" transform="translate(-8.7 -6.78)"/><path class="cls-1" d="M110.9,73.7h-.2c-1.4-.3-1.6-1.2-1.6-1.7v-.2c2-4.9,4.2-13.4,6.6-25.2h0c1-3.7,2-6.7,2.8-9v-.1l.1-.1a2.27,2.27,0,0,1,1.6-.6c.9,0,1.4,1,1.6,1.4l.1.2-.1.7c2.2,14.2,3.7,25.2,4.6,32.7V72a1.75,1.75,0,0,1-1.7,1.4c-1.3,0-1.9-1.8-2.1-6.1l-.4-2.4-1.5.1a45.17,45.17,0,0,1-5.5-.4C112.3,73.7,111.5,73.7,110.9,73.7Zm-.8-1.6c0,.2.1.4.7.5.3-.2,1.2-1.6,3.3-9l.1-.4.5.1c2.6.3,4.5.5,5.8.5l2.5-.1.6,3.5c.2,4.9,1,5.1,1,5.1s.4,0,.6-.6c-.9-7.5-2.4-18.5-4.6-32.6V39l.1-.5c-.3-.6-.5-.6-.5-.6a1.45,1.45,0,0,0-.7.2c-.8,2.3-1.8,5.2-2.8,8.8C114.4,58.6,112.2,67.1,110.1,72.1Zm11.5-9.6h-2a22.15,22.15,0,0,1-4.5-.5l-.5-.1,2.2-10.4c1.3-6.3,1.9-7.8,2.2-8.3l.2-.3h.9l2.8,18.8-.2.2A1.38,1.38,0,0,1,121.6,62.5Zm-5.7-1.4a22.18,22.18,0,0,0,3.7.3h2.1l-2.4-15.9c-.3,1.2-.8,3.1-1.4,6.3Z" transform="translate(-8.7 -6.78)"/><path class="cls-1" d="M127.7,36.7c.8,0,1.2,1.2,1.2,3.5.6,19.5,1.2,29.2,1.8,29.2l1.1-.2,4.2.1,1.4-.4c.4,0,.7.4,1.1,1.1-.2,1-1.3,1.5-3.1,1.5l-3.9-.1a3.8,3.8,0,0,0-1.6.8h-.6q-1.2,0-1.5-8.7c-.3-3.7-.7-12.4-1.2-26A1,1,0,0,1,127.7,36.7Z" transform="translate(-8.7 -6.78)"/><path class="cls-1" d="M130,72.9h-.8c-1.1,0-1.7-1.5-2.1-9.2-.3-3.7-.7-12.5-1.2-26v-.2a1.71,1.71,0,0,1,1.7-1.2c1.5,0,1.7,2.3,1.7,4.1.7,21.5,1.2,27.2,1.5,28.6l.7-.2,4.2.1,1.4-.3h.1c.9,0,1.4,1,1.6,1.4h.2v.2c-.3,1.3-1.5,2-3.6,2l-3.9-.1s-.3,0-1.3.7Zm-.7-1.1h.3c1.1-.7,1.5-.8,1.8-.8l3.9.1c1.4,0,2.2-.3,2.5-.9a1.11,1.11,0,0,0-.4-.5L136,70l-4.2-.1-1.1.2c-.6,0-.8-.7-1-2.3-.1-1.2-.3-3.1-.4-5.5q-.45-7.35-.9-21.9c0-3-.6-3-.6-3a.55.55,0,0,0-.6.4c.5,13.5.9,22.2,1.2,25.9C128.6,70.3,129.2,71.5,129.3,71.8Z" transform="translate(-8.7 -6.78)"/><path class="cls-1" d="M146.5,37c.4,0,.7.4,1.1,1.1a130.39,130.39,0,0,0-3,18.2,146.06,146.06,0,0,1-2.4,16.6l-.7.5c-.9-.3-1.3-.6-1.3-1.1l2.2-14.7a20.76,20.76,0,0,1-3.6-6.5,72,72,0,0,0-6-11.4l-.4-.9c0-.6.4-.9,1.3-1.1.4.1,1.1,1,1.9,2.7,1.7,2.3,3.9,6.5,6.5,12.7l.4,1C144,41.5,145.4,35.8,146.5,37Z" transform="translate(-8.7 -6.78)"/><path class="cls-1" d="M141.5,74l-.3-.1c-1.1-.3-1.7-.9-1.7-1.6v-.1l2.1-14.5a21.45,21.45,0,0,1-3.5-6.5,67.7,67.7,0,0,0-6-11.3v-.1l-.4-1v-.1c0-.5.2-1.3,1.7-1.6h.2c.5.1,1.1.5,2.3,3,1.7,2.2,3.7,6.1,6.1,11.9,2-15.1,3.1-15.5,3.8-15.7a1.06,1.06,0,0,1,.8.1,2,2,0,0,1,1.3,1.3l.1.2v.2a126.57,126.57,0,0,0-3,18.1,148.12,148.12,0,0,1-2.4,16.7v.2Zm-.8-1.7c0,.1.2.3.7.4l.3-.2a143.32,143.32,0,0,0,2.4-16.3,126.57,126.57,0,0,1,3-18.1c-.2-.5-.4-.6-.5-.6h-.2l-.1-.1c-.5.6-1.6,3.5-3.2,16.7l-.3,2.1-1.2-3c-2.6-6.1-4.7-10.4-6.4-12.6l-.1-.1a17.19,17.19,0,0,0-1.4-2.4,1,1,0,0,0-.7.4l.3.8a68.17,68.17,0,0,1,6,11.5,21.63,21.63,0,0,0,3.5,6.3l.2.2Z" transform="translate(-8.7 -6.78)"/><path class="cls-1" d="M43.3,13.1c-.1,0-.1.1-.2.1C43.2,13.3,43.2,13.2,43.3,13.1Z" transform="translate(-8.7 -6.78)"/><path class="cls-1" d="M113.4,13.1a.31.31,0,0,0,.2.1C113.5,13.2,113.4,13.2,113.4,13.1Z" transform="translate(-8.7 -6.78)"/><path class="cls-1" d="M117.9,6.9c-5-1-7.6,4.3-4.6,6.3a1.68,1.68,0,0,1-.3-1.9c.5-1.5,2.9-2,4.4-.7,3.2,2.7,2.2,7-.7,9.3-5.2,4.2-24.5.3-29.9-1.3a53.49,53.49,0,0,1-5.6-1.8,23.28,23.28,0,0,1-3-1.2h0c-.8.4-1.8.7-3,1.2-1.5.5-3.4,1.1-5.6,1.8-5.3,1.5-24.6,5.5-29.9,1.3-2.9-2.3-3.9-6.7-.7-9.3,1.5-1.2,3.9-.7,4.4.7.4,1.1,0,1.7-.3,1.9,3.1-2,.4-7.3-4.6-6.3-6.9,1.4-7.3,9.3-3.8,14.2,5.8,8,32.9,11.9,43.4.6C88.9,33,116,29,121.7,21.1,125.3,16.2,124.8,8.3,117.9,6.9Z" transform="translate(-8.7 -6.78)"/><path class="cls-1" d="M26,86.1h-.7v-6H23.7v-.7h4v.7H26Z" transform="translate(-8.7 -6.78)"/><path class="cls-1" d="M35.2,82.1V79.4H36v6.7h-.7V82.8H31.9v3.3h-.7V79.4h.7v2.7Z" transform="translate(-8.7 -6.78)"/><path class="cls-1" d="M40,79.4h3.5v.7H40.8v2h2.6v.7H40.8v2.6h2.7v.7H40Z" transform="translate(-8.7 -6.78)"/><path class="cls-1" d="M53.6,80.1v2h2.2v.7H53.6v3.3h-.7V79.4h3v.7Z" transform="translate(-8.7 -6.78)"/><path class="cls-1" d="M60,84.2l-.8,1.9h-.8l3.1-7,3,7h-.8l-.8-1.9Zm1.5-3.4-1.1,2.7h2.3Z" transform="translate(-8.7 -6.78)"/><path class="cls-1" d="M70.9,80.7a1.21,1.21,0,0,0-1.2-.7,1,1,0,0,0-1.1,1c0,.6.6.8,1,1l.4.2c.9.4,1.6.8,1.6,1.9a2.12,2.12,0,0,1-4.2.4l.7-.2a1.3,1.3,0,0,0,1.3,1.2,1.42,1.42,0,0,0,1.4-1.3c0-.8-.6-1-1.2-1.3l-.4-.2c-.8-.4-1.5-.8-1.5-1.7a1.8,1.8,0,0,1,1.9-1.7,1.94,1.94,0,0,1,1.7,1Z" transform="translate(-8.7 -6.78)"/><path class="cls-1" d="M77.2,86.1h-.7v-6H74.9v-.7h4v.7H77.3v6Z" transform="translate(-8.7 -6.78)"/><path class="cls-1" d="M88.4,86.1h-.7V79.4h.7Z" transform="translate(-8.7 -6.78)"/><path class="cls-1" d="M94.2,86.1h-.7v-6H91.9v-.7h4v.7H94.3v6Z" transform="translate(-8.7 -6.78)"/><path class="cls-1" d="M99.6,84.2l-.8,1.9H98l3.1-7,3,7h-.8l-.8-1.9Zm1.4-3.4-1.1,2.7h2.3Z" transform="translate(-8.7 -6.78)"/><path class="cls-1" d="M108.2,85.4H110v.7h-2.6V79.4h.7v6Z" transform="translate(-8.7 -6.78)"/><path class="cls-1" d="M114.2,86.1h-.7V79.4h.7Z" transform="translate(-8.7 -6.78)"/><path class="cls-1" d="M119.2,84.2l-.8,1.9h-.8l3.1-7,3,7h-.8l-.8-1.9Zm1.4-3.4-1.1,2.7h2.3Z" transform="translate(-8.7 -6.78)"/><path class="cls-1" d="M127.1,79.1l5.2,5.5V79.4h.7v7L127.8,81v5.1h-.7Z" transform="translate(-8.7 -6.78)"/></svg>